<?xml version="1.0" standalone="no"?>
<!DOCTYPE svg PUBLIC "-//W3C//DTD SVG 20010904//EN"
 "http://www.w3.org/TR/2001/REC-SVG-20010904/DTD/svg10.dtd">
<svg version="1.0" xmlns="http://www.w3.org/2000/svg"
 width="261.000000pt" height="261.000000pt" viewBox="0 0 261.000000 261.000000"
 preserveAspectRatio="xMidYMid meet">
<metadata>
Created by potrace 1.11, written by Peter Selinger 2001-2013
</metadata>
<g transform="translate(0.000000,261.000000) scale(0.100000,-0.100000)"
fill="#000000" stroke="none">
<path d="M1069 2584 c-118 -21 -234 -61 -352 -121 -254 -129 -441 -316 -570
-570 -99 -195 -137 -357 -137 -588 0 -231 38 -393 137 -588 129 -254 316 -441
570 -570 195 -99 357 -137 588 -137 231 0 393 38 588 137 254 129 441 316 570
570 99 195 138 359 138 588 0 229 -39 393 -138 588 -187 366 -531 623 -930
692 -107 19 -360 18 -464 -1z m251 -683 l0 -119 258 -4 c201 -4 270 -8 317
-22 147 -41 248 -119 280 -215 22 -68 16 -183 -14 -262 -84 -219 -322 -452
-647 -633 l-101 -56 -244 0 -244 0 85 46 c260 140 470 355 590 606 66 137 66
241 1 285 -21 14 -52 18 -153 21 l-128 4 0 -201 0 -201 -240 0 -240 0 0 200 0
200 -195 0 -195 0 0 115 0 115 195 0 195 0 0 120 0 120 240 0 240 0 0 -119z"/>
</g>
</svg>
